# Blender3D v249 OBJ File: .powerup.blend
# www.blender3d.org
mtllib copperhex.mtl
o hex
v 0.500000 0.866025 0.000000
v 1.000000 -0.000000 0.000000
v 0.500000 -0.866025 0.000000
v -0.500000 -0.866025 0.000000
v -1.000000 0.000000 0.000000
v -0.500000 0.866026 0.000000
v 0.342217 0.592738 0.300000
v 0.684434 -0.000000 0.300000
v 0.342217 -0.592738 0.300000
v -0.342217 -0.592738 0.300000
v -0.684434 0.000000 0.300000
v -0.342217 0.592738 0.300000
vt 0.232590 0.085320
vt 0.351144 0.233016
vt 0.202288 0.490842
vt 0.015102 0.462019
vt 0.015102 0.519665
vt 0.351144 0.748668
vt 0.232590 0.896364
vt 0.717487 0.925187
vt 0.282513 0.925187
vt 0.648856 0.748668
vt 0.984898 0.519665
vt 0.767410 0.896364
vt 0.797712 0.490842
vt 0.767410 0.085319
vt 0.984898 0.462019
vt 0.648856 0.233016
vt 0.282513 0.056497
vt 0.717487 0.056496
vn 0.640211 0.369626 0.673429
vn 0.640211 -0.369626 0.673429
vn -0.000000 -0.739252 0.673429
vn -0.640211 -0.369626 0.673429
vn -0.640211 0.369626 0.673429
vn 0.000000 0.739252 0.673429
vn 0.000000 0.000000 1.000000
usemtl Powerup
s off
f 1/1/1 7/2/1 8/3/1 2/4/1
f 2/5/2 8/3/2 9/6/2 3/7/2
f 4/8/3 3/9/3 9/6/3 10/10/3
f 5/11/4 4/12/4 10/10/4 11/13/4
f 6/14/5 5/15/5 11/13/5 12/16/5
f 7/2/6 1/17/6 6/18/6 12/16/6
f 7/2/7 12/16/7 11/13/7 8/3/7
f 8/3/7 11/13/7 10/10/7 9/6/7
