# Blender3D v249 OBJ File: .faceball.blend
# www.blender3d.org
mtllib deathball.mtl
o Ball
v -0.095671 0.230970 0.250000
v -0.176777 0.176777 0.250000
v -0.230970 0.095671 0.250000
v -0.250000 0.000000 0.250000
v -0.230970 -0.095671 0.250000
v -0.176777 -0.176777 0.250000
v -0.095671 -0.230970 0.250000
v -0.067650 -0.230970 0.317650
v -0.125000 -0.176777 0.375000
v -0.163320 -0.095671 0.413320
v -0.176777 0.000000 0.426777
v -0.163320 0.095671 0.413320
v -0.125000 0.176777 0.375000
v -0.067649 0.230970 0.317650
v 0.000000 0.250000 0.250000
v 0.000000 0.230970 0.345671
v 0.000000 0.176777 0.426777
v 0.000000 0.095671 0.480970
v 0.000000 0.000000 0.500000
v 0.000000 -0.095671 0.480970
v -0.000000 -0.176777 0.426777
v -0.000000 -0.230970 0.345671
v 0.067650 -0.230970 0.317650
v 0.125000 -0.176777 0.375000
v 0.163320 -0.095671 0.413320
v 0.176777 -0.000000 0.426777
v 0.163320 0.095671 0.413320
v 0.125000 0.176777 0.375000
v 0.067650 0.230970 0.317649
v 0.095671 0.230970 0.250000
v 0.176777 0.176777 0.250000
v 0.230970 0.095671 0.250000
v 0.250000 -0.000000 0.250000
v 0.230970 -0.095671 0.250000
v 0.176777 -0.176777 0.250000
v 0.095671 -0.230970 0.250000
v 0.000000 -0.250000 0.250000
v 0.067649 -0.230970 0.182350
v 0.125000 -0.176777 0.125000
v 0.163320 -0.095671 0.086680
v 0.176777 -0.000000 0.073223
v 0.163320 0.095671 0.086680
v 0.125000 0.176777 0.125000
v 0.067650 0.230970 0.182350
v -0.000000 0.230970 0.154329
v -0.000000 0.176777 0.073223
v -0.000000 0.095671 0.019030
v -0.000000 -0.000000 0.000000
v -0.000000 -0.095671 0.019030
v -0.000000 -0.176777 0.073223
v -0.000000 -0.230970 0.154329
v -0.067650 -0.230970 0.182350
v -0.125000 -0.176777 0.125000
v -0.163320 -0.095671 0.086680
v -0.176777 0.000000 0.073223
v -0.163320 0.095671 0.086680
v -0.125000 0.176777 0.125000
v -0.067650 0.230970 0.182351
vt 0.467621 0.063184
vt 0.341315 0.117936
vt 0.276011 0.102255
vt 0.273467 0.271320
vt 0.119379 0.218072
vt 0.239363 0.407797
vt 0.026585 0.376552
vt 0.228768 0.541674
vt 0.002920 0.550694
vt 0.239097 0.672701
vt 0.045526 0.715101
vt 0.272564 0.805361
vt 0.143187 0.849198
vt 0.339798 0.945952
vt 0.282331 0.953267
vt 0.457373 0.997064
vt 0.456685 0.919442
vt 0.457250 0.775759
vt 0.459258 0.654182
vt 0.295604 0.784881
vt 0.462070 0.539421
vt 0.465091 0.424001
vt 0.463103 0.300217
vt 0.462643 0.152606
vt 0.584770 0.124798
vt 0.651833 0.269838
vt 0.688236 0.407609
vt 0.693204 0.539403
vt 0.683548 0.672916
vt 0.635577 0.780427
vt 0.643257 0.808587
vt 0.573792 0.948992
vt 0.634328 0.957314
vt 0.790753 0.866363
vt 0.888021 0.714861
vt 0.932579 0.543235
vt 0.895165 0.370161
vt 0.803835 0.213436
vt 0.649224 0.114692
vt 0.936186 0.325304
vt 0.911325 0.263696
vt 0.961698 0.253434
vt 0.882343 0.219949
vt 0.956853 0.176450
vt 0.850156 0.187603
vt 0.922814 0.110522
vt 0.814715 0.162419
vt 0.867575 0.064758
vt 0.775809 0.143771
vt 0.800562 0.044422
vt 0.732738 0.131700
vt 0.731809 0.050832
vt 0.681475 0.126165
vt 0.669528 0.081597
vt 0.618395 0.132355
vt 0.671147 0.163843
vt 0.710585 0.187764
vt 0.744273 0.208266
vt 0.776219 0.227023
vt 0.807777 0.246987
vt 0.842683 0.267674
vt 0.883246 0.292153
vt 0.870933 0.329691
vt 0.819989 0.324738
vt 0.776628 0.312035
vt 0.738272 0.292665
vt 0.703879 0.266781
vt 0.670766 0.234623
vt 0.643256 0.191834
vt 0.596324 0.201803
vt 0.596042 0.274087
vt 0.624345 0.343955
vt 0.681660 0.391964
vt 0.750413 0.412890
vt 0.820333 0.406302
vt 0.882755 0.375337
vn 0.000000 -1.000000 0.000000
vn -0.295206 -0.908658 0.295206
vn -0.417493 -0.908658 0.000000
vn -0.509445 -0.693442 0.509445
vn -0.720481 -0.693442 0.000000
vn -0.655385 -0.375378 0.655385
vn -0.926847 -0.375378 0.000000
vn -0.707083 0.000000 0.707083
vn -1.000000 0.000000 0.000000
vn -0.655385 0.375378 0.655385
vn -0.926847 0.375378 0.000000
vn -0.509445 0.693442 0.509445
vn -0.720481 0.693442 0.000000
vn -0.295206 0.908658 0.295206
vn -0.417493 0.908658 0.000000
vn 0.000000 1.000000 0.000000
vn 0.000000 0.908658 0.417493
vn 0.000000 0.693442 0.720481
vn 0.000000 0.375378 0.926847
vn 0.000000 0.000000 1.000000
vn 0.000000 -0.375378 0.926847
vn 0.000000 -0.693442 0.720481
vn 0.000000 -0.908658 0.417493
vn 0.295206 -0.908658 0.295206
vn 0.509445 -0.693442 0.509445
vn 0.655385 -0.375378 0.655385
vn 0.707083 0.000000 0.707083
vn 0.655385 0.375378 0.655385
vn 0.509445 0.693442 0.509445
vn 0.295206 0.908658 0.295206
vn 0.417493 0.908658 0.000000
vn 0.720481 0.693442 0.000000
vn 0.926847 0.375378 0.000000
vn 1.000000 0.000000 0.000000
vn 0.926847 -0.375378 0.000000
vn 0.720481 -0.693442 0.000000
vn 0.417493 -0.908658 0.000000
vn 0.295206 -0.908658 -0.295206
vn 0.509445 -0.693442 -0.509445
vn 0.655385 -0.375378 -0.655385
vn 0.707083 0.000000 -0.707083
vn 0.655385 0.375378 -0.655385
vn 0.509445 0.693442 -0.509445
vn 0.295206 0.908658 -0.295206
vn 0.000000 0.908658 -0.417493
vn 0.000000 0.693442 -0.720481
vn 0.000000 0.375378 -0.926847
vn 0.000000 0.000000 -1.000000
vn 0.000000 -0.375378 -0.926847
vn 0.000000 -0.693442 -0.720481
vn 0.000000 -0.908658 -0.417493
vn -0.295206 -0.908658 -0.295206
vn -0.509445 -0.693442 -0.509445
vn -0.655385 -0.375378 -0.655385
vn -0.707083 0.000000 -0.707083
vn -0.655385 0.375378 -0.655385
vn -0.509445 0.693442 -0.509445
vn -0.295206 0.908658 -0.295206
usemtl None_faceball.png
s 1
f 37/1/1 8/2/2 7/3/3
f 7/3/3 8/2/2 9/4/4 6/5/5
f 6/5/5 9/4/4 10/6/6 5/7/7
f 5/7/7 10/6/6 11/8/8 4/9/9
f 4/9/9 11/8/8 12/10/10 3/11/11
f 3/11/11 12/10/10 13/12/12 2/13/13
f 14/14/14 1/15/15 2/13/13 13/12/12
f 1/15/15 14/14/14 15/16/16
f 14/14/14 16/17/17 15/16/16
f 13/12/12 17/18/18 16/17/17 14/14/14
f 12/10/10 18/19/19 17/18/18 13/20/12
f 11/8/8 19/21/20 18/19/19 12/10/10
f 10/6/6 20/22/21 19/21/20 11/8/8
f 9/4/4 21/23/22 20/22/21 10/6/6
f 8/2/2 22/24/23 21/23/22 9/4/4
f 37/1/1 22/24/23 8/2/2
f 37/1/1 23/25/24 22/24/23
f 22/24/23 23/25/24 24/26/25 21/23/22
f 21/23/22 24/26/25 25/27/26 20/22/21
f 20/22/21 25/27/26 26/28/27 19/21/20
f 19/21/20 26/28/27 27/29/28 18/19/19
f 18/19/19 27/29/28 28/30/29 17/18/18
f 17/18/18 28/31/29 29/32/30 16/17/17
f 16/17/17 29/32/30 15/16/16
f 29/32/30 30/33/31 15/16/16
f 28/31/29 31/34/32 30/33/31 29/32/30
f 27/29/28 32/35/33 31/34/32 28/31/29
f 26/28/27 33/36/34 32/35/33 27/29/28
f 25/27/26 34/37/35 33/36/34 26/28/27
f 24/26/25 35/38/36 34/37/35 25/27/26
f 23/25/24 36/39/37 35/38/36 24/26/25
f 37/1/1 36/39/37 23/25/24
f 37/40/1 38/41/38 36/42/37
f 36/42/37 38/41/38 39/43/39 35/44/36
f 35/44/36 39/43/39 40/45/40 34/46/35
f 34/46/35 40/45/40 41/47/41 33/48/34
f 33/48/34 41/47/41 42/49/42 32/50/33
f 32/50/33 42/49/42 43/51/43 31/52/32
f 31/52/32 43/51/43 44/53/44 30/54/31
f 30/54/31 44/53/44 15/55/16
f 44/53/44 45/56/45 15/55/16
f 43/51/43 46/57/46 45/56/45 44/53/44
f 42/49/42 47/58/47 46/57/46 43/51/43
f 41/47/41 48/59/48 47/58/47 42/49/42
f 40/45/40 49/60/49 48/59/48 41/47/41
f 39/43/39 50/61/50 49/60/49 40/45/40
f 38/41/38 51/62/51 50/61/50 39/43/39
f 37/40/1 51/62/51 38/41/38
f 37/40/1 52/63/52 51/62/51
f 51/62/51 52/63/52 53/64/53 50/61/50
f 50/61/50 53/64/53 54/65/54 49/60/49
f 49/60/49 54/65/54 55/66/55 48/59/48
f 48/59/48 55/66/55 56/67/56 47/58/47
f 47/58/47 56/67/56 57/68/57 46/57/46
f 46/57/46 57/68/57 58/69/58 45/56/45
f 45/56/45 58/69/58 15/55/16
f 58/69/58 1/70/15 15/55/16
f 1/70/15 58/69/58 57/68/57 2/71/13
f 56/67/56 3/72/11 2/71/13 57/68/57
f 55/66/55 4/73/9 3/72/11 56/67/56
f 54/65/54 5/74/7 4/73/9 55/66/55
f 53/64/53 6/75/5 5/74/7 54/65/54
f 52/63/52 7/76/3 6/75/5 53/64/53
f 37/40/1 7/76/3 52/63/52
