# Blender3D v249 OBJ File: .hex.blend
# www.blender3d.org
o hex
v 0.500000 0.866025 0.000000
v 1.000000 -0.000000 0.000000
v 0.500000 -0.866025 0.000000
v -0.500000 -0.866025 0.000000
v -1.000000 0.000000 0.000000
v -0.500000 0.866026 0.000000
v 0.342217 0.592738 0.300000
v 0.684434 -0.000000 0.300000
v 0.342217 -0.592738 0.300000
v -0.342217 -0.592738 0.300000
v -0.684434 0.000000 0.300000
v -0.342217 0.592738 0.300000
vn 0.640211 0.369626 0.673429
vn 0.640211 -0.369626 0.673429
vn -0.000000 -0.739252 0.673429
vn -0.640211 -0.369626 0.673429
vn -0.640211 0.369626 0.673429
vn 0.000000 0.739252 0.673429
vn 0.000000 -0.000000 1.000000
usemtl (null)
s off
f 1//1 7//1 8//1 2//1
f 2//2 8//2 9//2 3//2
f 4//3 3//3 9//3 10//3
f 5//4 4//4 10//4 11//4
f 6//5 5//5 11//5 12//5
f 7//6 1//6 6//6 12//6
f 7//7 12//7 11//7 8//7
f 8//7 11//7 10//7 9//7
