# Blender3D v249 OBJ File: .spikeball.blend
# www.blender3d.org
mtllib spikeball.mtl
o Sphere
v 0.093750 0.019074 0.404449
v 0.079315 0.053498 0.002964
v 0.167783 0.113171 0.075952
v 0.207259 0.139798 0.173479
v 0.191483 0.129157 0.269150
v 0.146555 0.098852 0.350256
v 0.079315 0.053498 0.404449
v 0.000000 -0.000000 0.423479
v 0.052804 0.079779 0.404449
v 0.097570 0.147412 0.350256
v 0.127481 0.192603 0.269150
v 0.137984 0.208471 0.173479
v 0.111703 0.168764 0.075952
v 0.052804 0.079779 0.002964
v 0.018255 0.093913 0.002964
v 0.038617 0.198665 0.075952
v 0.047702 0.245407 0.173479
v 0.044071 0.226726 0.269150
v 0.033731 0.173529 0.350256
v 0.018255 0.093913 0.404449
v -0.019074 0.093750 0.404449
v -0.035244 0.173228 0.350256
v -0.046048 0.226333 0.269150
v -0.049842 0.244981 0.173479
v -0.040349 0.198320 0.075952
v -0.019074 0.093750 0.002964
v -0.053498 0.079315 0.002964
v -0.113171 0.167783 0.075952
v -0.139798 0.207259 0.173479
v -0.129157 0.191483 0.269150
v -0.098852 0.146554 0.350256
v -0.053498 0.079315 0.404449
v -0.079779 0.052804 0.404449
v -0.147412 0.097570 0.350256
v -0.192602 0.127481 0.269150
v -0.208471 0.137984 0.173479
v -0.168764 0.111703 0.075952
v -0.079779 0.052804 0.002964
v -0.093913 0.018255 0.002964
v -0.198665 0.038616 0.075952
v -0.245407 0.047702 0.173479
v -0.226726 0.044071 0.269150
v -0.173529 0.033731 0.350256
v -0.093913 0.018255 0.404449
v -0.093750 -0.019074 0.404449
v -0.173228 -0.035244 0.350256
v -0.226333 -0.046048 0.269150
v -0.244981 -0.049842 0.173479
v -0.198320 -0.040349 0.075952
v -0.093750 -0.019074 0.002964
v -0.079315 -0.053498 0.002964
v -0.167783 -0.113171 0.075952
v -0.207259 -0.139798 0.173479
v -0.191483 -0.129157 0.269150
v -0.146554 -0.098852 0.350256
v -0.079315 -0.053498 0.404449
v -0.052804 -0.079779 0.404449
v -0.097570 -0.147412 0.350256
v -0.127481 -0.192602 0.269150
v -0.137984 -0.208471 0.173479
v -0.111703 -0.168764 0.075952
v -0.052804 -0.079779 0.002964
v -0.018255 -0.093913 0.002964
v -0.038616 -0.198665 0.075952
v -0.047702 -0.245407 0.173479
v -0.044071 -0.226726 0.269150
v -0.033731 -0.173529 0.350256
v -0.018255 -0.093913 0.404449
v 0.019074 -0.093750 0.404449
v 0.035244 -0.173228 0.350256
v 0.046048 -0.226333 0.269150
v 0.049842 -0.244981 0.173479
v 0.040349 -0.198320 0.075952
v 0.019074 -0.093750 0.002964
v 0.053498 -0.079315 0.002964
v 0.113171 -0.167783 0.075952
v 0.139798 -0.207259 0.173479
v 0.129157 -0.191483 0.269150
v 0.098852 -0.146554 0.350256
v 0.053498 -0.079315 0.404449
v 0.079779 -0.052804 0.404449
v 0.147412 -0.097570 0.350256
v 0.192602 -0.127481 0.269150
v 0.208471 -0.137984 0.173479
v 0.168764 -0.111703 0.075952
v 0.079779 -0.052804 0.002964
v 0.093913 -0.018255 0.002964
v 0.198665 -0.038616 0.075952
v 0.245407 -0.047702 0.173479
v 0.226726 -0.044071 0.269150
v 0.173529 -0.033731 0.350256
v 0.093913 -0.018255 0.404449
v 0.173228 0.035244 0.350256
v 0.226333 0.046048 0.269150
v 0.244981 0.049842 0.173479
v 0.198320 0.040349 0.075952
v 0.093750 0.019074 0.002964
v 0.344440 0.001503 0.233951
v 0.181077 -0.074081 0.431893
v 0.244619 -0.242493 0.233951
v 0.075658 -0.180424 0.431893
v 0.001503 -0.344440 0.233951
v -0.074081 -0.181077 0.431893
v -0.242493 -0.244619 0.233951
v -0.180424 -0.075658 0.431893
v -0.344440 -0.001503 0.233951
v -0.181077 0.074081 0.431893
v -0.244619 0.242493 0.233951
v -0.075658 0.180424 0.431893
v -0.001503 0.344440 0.233951
v 0.074081 0.181077 0.431893
v 0.242493 0.244619 0.233951
v 0.180424 0.075658 0.431893
vn 0.527510 0.221203 -0.820246
vn 0.831756 0.348783 -0.431895
vn 0.905137 0.379555 0.191480
vn 0.771326 0.323443 0.548124
vn 0.183299 0.076864 0.980048
vn 0.139932 0.141158 0.980048
vn 0.588836 0.593997 0.548124
vn 0.634968 0.640533 -0.431895
vn 0.402705 0.406234 -0.820246
vn 0.216591 0.529420 -0.820246
vn 0.341512 0.834767 -0.431895
vn 0.371642 0.908415 0.191480
vn 0.316700 0.774119 0.548124
vn 0.075261 0.183963 0.980048
vn -0.000867 0.198761 0.980048
vn -0.003649 0.836389 0.548124
vn -0.003935 0.901915 -0.431895
vn -0.002496 0.572006 -0.820245
vn -0.221203 0.527510 -0.820245
vn -0.348784 0.831755 -0.431895
vn -0.379556 0.905137 0.191480
vn -0.323444 0.771326 0.548124
vn -0.076864 0.183299 0.980048
vn -0.141158 0.139932 0.980048
vn -0.593997 0.588836 0.548124
vn -0.640533 0.634968 -0.431895
vn -0.406234 0.402705 -0.820245
vn -0.529420 0.216591 -0.820245
vn -0.834767 0.341512 -0.431895
vn -0.908415 0.371642 0.191480
vn -0.774119 0.316700 0.548124
vn -0.183963 0.075261 0.980048
vn -0.198761 -0.000867 0.980048
vn -0.836389 -0.003650 0.548124
vn -0.901915 -0.003935 -0.431895
vn -0.572006 -0.002496 -0.820245
vn -0.527510 -0.221203 -0.820245
vn -0.831755 -0.348784 -0.431895
vn -0.905137 -0.379556 0.191480
vn -0.771326 -0.323444 0.548124
vn -0.183299 -0.076864 0.980048
vn -0.139932 -0.141159 0.980048
vn -0.588836 -0.593997 0.548124
vn -0.634968 -0.640533 -0.431895
vn -0.402705 -0.406234 -0.820246
vn -0.216591 -0.529420 -0.820245
vn -0.341512 -0.834767 -0.431895
vn -0.371642 -0.908415 0.191480
vn -0.316700 -0.774119 0.548124
vn -0.075261 -0.183963 0.980048
vn 0.000867 -0.198761 0.980048
vn 0.003649 -0.836389 0.548124
vn 0.003935 -0.901915 -0.431895
vn 0.002496 -0.572006 -0.820245
vn 0.221203 -0.527510 -0.820245
vn 0.348784 -0.831755 -0.431895
vn 0.379556 -0.905137 0.191480
vn 0.323444 -0.771326 0.548124
vn 0.076864 -0.183299 0.980048
vn 0.141159 -0.139932 0.980048
vn 0.593997 -0.588836 0.548124
vn 0.640533 -0.634968 -0.431895
vn 0.406234 -0.402705 -0.820245
vn 0.529420 -0.216591 -0.820245
vn 0.834767 -0.341512 -0.431895
vn 0.908415 -0.371642 0.191480
vn 0.774119 -0.316700 0.548124
vn 0.183963 -0.075261 0.980048
vn 0.198761 0.000867 0.980048
vn 0.836389 0.003649 0.548124
vn 0.901915 0.003935 -0.431895
vn 0.572006 0.002496 -0.820245
vn 0.520323 0.002270 -0.853967
vn 0.892927 -0.365306 -0.263121
vn -0.240883 0.098548 0.965538
vn 0.369529 -0.366318 -0.853967
vn 0.373085 -0.889705 -0.263121
vn -0.100646 0.240013 0.965538
vn 0.002270 -0.520323 -0.853966
vn -0.365306 -0.892927 -0.263121
vn 0.098548 0.240883 0.965538
vn -0.366319 -0.369530 -0.853966
vn -0.889705 -0.373084 -0.263121
vn 0.240013 0.100646 0.965538
vn -0.520323 -0.002270 -0.853966
vn -0.892927 0.365306 -0.263121
vn 0.240883 -0.098548 0.965538
vn -0.369530 0.366319 -0.853966
vn -0.373084 0.889705 -0.263121
vn 0.100646 -0.240014 0.965538
vn -0.002270 0.520323 -0.853966
vn 0.365306 0.892927 -0.263121
vn -0.098548 -0.240883 0.965538
vn 0.366319 0.369530 -0.853966
vn -0.240014 -0.100646 0.965538
vn 0.889706 0.373084 -0.263121
vn 0.396379 0.399854 0.826438
vn -0.002457 0.563022 0.826438
vn -0.399854 0.396379 0.826438
vn -0.563022 -0.002457 0.826438
vn -0.396379 -0.399854 0.826438
vn 0.002457 -0.563022 0.826438
vn 0.399854 -0.396379 0.826438
vn 0.563022 0.002456 0.826438
vn 0.414694 0.830406 0.372095
vn -0.286258 -0.882950 0.372095
vn 0.880419 0.293953 0.372095
vn -0.826755 -0.421925 0.372095
vn 0.830406 -0.414694 0.372095
vn -0.882950 0.286258 0.372095
vn 0.293953 -0.880419 0.372095
vn -0.421925 0.826755 0.372095
vn -0.414694 -0.830406 0.372095
vn 0.286258 0.882950 0.372095
vn -0.880419 -0.293953 0.372095
vn 0.826755 0.421925 0.372095
vn -0.830406 0.414694 0.372095
vn 0.882950 -0.286258 0.372095
vn 0.421925 -0.826756 0.372095
vn -0.293953 0.880419 0.372095
vn 0.379367 0.918639 0.110376
vn 0.286043 0.001248 0.958216
vn 0.387369 -0.915293 0.110376
vn 0.917829 0.381323 0.110376
vn 0.203146 -0.201381 0.958216
vn -0.373299 -0.921122 0.110376
vn 0.918639 -0.379367 0.110376
vn 0.001248 -0.286043 0.958216
vn -0.915293 -0.387369 0.110376
vn 0.381323 -0.917829 0.110376
vn -0.201380 -0.203146 0.958216
vn -0.921122 0.373299 0.110376
vn -0.379367 -0.918639 0.110376
vn -0.286043 -0.001248 0.958216
vn -0.387369 0.915293 0.110376
vn -0.917829 -0.381323 0.110376
vn -0.203145 0.201380 0.958216
vn 0.373299 0.921122 0.110376
vn -0.918639 0.379367 0.110376
vn -0.001248 0.286043 0.958216
vn 0.915293 0.387369 0.110376
vn -0.381323 0.917829 0.110376
vn 0.201380 0.203145 0.958216
vn 0.921122 -0.373299 0.110376
usemtl Material.001
s off
f 97//1 2//1 3//1 96//1
f 96//2 3//2 4//2 95//2
f 95//3 4//3 5//3 94//3
f 94//4 5//4 6//4 93//4
f 1//5 7//5 8//5
f 7//6 9//6 8//6
f 5//7 11//7 10//7 6//7
f 3//8 13//8 12//8 4//8
f 2//9 14//9 13//9 3//9
f 14//10 15//10 16//10 13//10
f 13//11 16//11 17//11 12//11
f 12//12 17//12 18//12 11//12
f 11//13 18//13 19//13 10//13
f 9//14 20//14 8//14
f 20//15 21//15 8//15
f 18//16 23//16 22//16 19//16
f 16//17 25//17 24//17 17//17
f 15//18 26//18 25//18 16//18
f 26//19 27//19 28//19 25//19
f 25//20 28//20 29//20 24//20
f 24//21 29//21 30//21 23//21
f 23//22 30//22 31//22 22//22
f 21//23 32//23 8//23
f 32//24 33//24 8//24
f 30//25 35//25 34//25 31//25
f 28//26 37//26 36//26 29//26
f 27//27 38//27 37//27 28//27
f 38//28 39//28 40//28 37//28
f 37//29 40//29 41//29 36//29
f 36//30 41//30 42//30 35//30
f 35//31 42//31 43//31 34//31
f 33//32 44//32 8//32
f 44//33 45//33 8//33
f 42//34 47//34 46//34 43//34
f 40//35 49//35 48//35 41//35
f 39//36 50//36 49//36 40//36
f 50//37 51//37 52//37 49//37
f 49//38 52//38 53//38 48//38
f 48//39 53//39 54//39 47//39
f 47//40 54//40 55//40 46//40
f 45//41 56//41 8//41
f 56//42 57//42 8//42
f 54//43 59//43 58//43 55//43
f 52//44 61//44 60//44 53//44
f 51//45 62//45 61//45 52//45
f 62//46 63//46 64//46 61//46
f 61//47 64//47 65//47 60//47
f 60//48 65//48 66//48 59//48
f 59//49 66//49 67//49 58//49
f 57//50 68//50 8//50
f 68//51 69//51 8//51
f 66//52 71//52 70//52 67//52
f 64//53 73//53 72//53 65//53
f 63//54 74//54 73//54 64//54
f 74//55 75//55 76//55 73//55
f 73//56 76//56 77//56 72//56
f 72//57 77//57 78//57 71//57
f 71//58 78//58 79//58 70//58
f 69//59 80//59 8//59
f 80//60 81//60 8//60
f 78//61 83//61 82//61 79//61
f 76//62 85//62 84//62 77//62
f 75//63 86//63 85//63 76//63
f 86//64 87//64 88//64 85//64
f 85//65 88//65 89//65 84//65
f 84//66 89//66 90//66 83//66
f 83//67 90//67 91//67 82//67
f 81//68 92//68 8//68
f 92//69 1//69 8//69
f 90//70 94//70 93//70 91//70
f 88//71 96//71 95//71 89//71
f 87//72 97//72 96//72 88//72
f 95//73 98//73 89//73
f 91//74 99//74 82//74
f 81//75 99//75 92//75
f 84//76 100//76 77//76
f 79//77 101//77 70//77
f 69//78 101//78 80//78
f 72//79 102//79 65//79
f 67//80 103//80 58//80
f 57//81 103//81 68//81
f 60//82 104//82 53//82
f 55//83 105//83 46//83
f 45//84 105//84 56//84
f 48//85 106//85 41//85
f 43//86 107//86 34//86
f 33//87 107//87 44//87
f 36//88 108//88 29//88
f 31//89 109//89 22//89
f 21//90 109//90 32//90
f 24//91 110//91 17//91
f 19//92 111//92 10//92
f 9//93 111//93 20//93
f 12//94 112//94 4//94
f 1//95 113//95 7//95
f 6//96 113//96 93//96
usemtl Material.002
f 6//97 10//97 9//97 7//97
f 19//98 22//98 21//98 20//98
f 31//99 34//99 33//99 32//99
f 43//100 46//100 45//100 44//100
f 55//101 58//101 57//101 56//101
f 67//102 70//102 69//102 68//102
f 79//103 82//103 81//103 80//103
f 1//104 92//104 91//104 93//104
f 92//105 99//105 91//105
f 82//106 99//106 81//106
f 80//107 101//107 79//107
f 70//108 101//108 69//108
f 68//109 103//109 67//109
f 58//110 103//110 57//110
f 56//111 105//111 55//111
f 46//112 105//112 45//112
f 44//113 107//113 43//113
f 34//114 107//114 33//114
f 32//115 109//115 31//115
f 22//116 109//116 21//116
f 20//117 111//117 19//117
f 10//118 111//118 9//118
f 113//119 1//119 93//119
f 7//120 113//120 6//120
usemtl Material.003
f 94//121 98//121 95//121
f 90//122 98//122 94//122
f 89//123 98//123 90//123
f 83//124 100//124 84//124
f 78//125 100//125 83//125
f 77//126 100//126 78//126
f 71//127 102//127 72//127
f 66//128 102//128 71//128
f 65//129 102//129 66//129
f 59//130 104//130 60//130
f 54//131 104//131 59//131
f 53//132 104//132 54//132
f 47//133 106//133 48//133
f 42//134 106//134 47//134
f 41//135 106//135 42//135
f 35//136 108//136 36//136
f 30//137 108//137 35//137
f 29//138 108//138 30//138
f 23//139 110//139 24//139
f 18//140 110//140 23//140
f 17//141 110//141 18//141
f 11//142 112//142 12//142
f 5//143 112//143 11//143
f 4//144 112//144 5//144
