# Blender3D v249 OBJ File: .squelchy.blend
# www.blender3d.org
mtllib squelchy.mtl
o Circle.001
v 0.437116 -0.168925 0.191970
v 0.434333 -0.134541 0.202028
v 0.449949 -0.103782 0.191970
v 0.474816 -0.094666 0.167686
v 0.494367 -0.112533 0.143402
v 0.497149 -0.146916 0.133344
v 0.481533 -0.177675 0.143402
v 0.456667 -0.186792 0.167686
v 0.483291 -0.144186 0.187561
v 0.504256 0.048887 0.187561
v 0.486368 0.001939 0.167686
v 0.509004 0.015690 0.143402
v 0.518379 0.048887 0.133344
v 0.509004 0.082084 0.143402
v 0.486368 0.095835 0.167686
v 0.463733 0.082084 0.191970
v 0.454357 0.048887 0.202028
v 0.463733 0.015690 0.191970
v 0.360701 -0.078401 0.273194
v 0.349601 -0.045204 0.281309
v 0.360701 -0.012007 0.273194
v 0.387501 0.001744 0.253602
v 0.414300 -0.012007 0.234009
v 0.425401 -0.045204 0.225894
v 0.414300 -0.078401 0.234009
v 0.387501 -0.092152 0.253602
v 0.401330 -0.045204 0.276487
vn 0.273202 -0.053804 0.960418
vn 0.308725 -0.424574 0.851100
vn 0.702475 -0.138371 0.698111
vn 0.446699 0.275735 0.851100
vn 0.717521 0.361705 0.595233
vn 0.921720 0.166295 0.350383
vn 0.949431 -0.187017 0.252083
vn 0.789758 -0.503464 0.350383
vn 0.526719 -0.606830 0.595233
vn 0.634083 -0.493576 0.595233
vn 0.715964 0.000000 0.698111
vn 0.384960 -0.356883 0.851100
vn 0.872189 -0.341319 0.350383
vn 0.967681 0.000000 0.252083
vn 0.872189 0.341319 0.350383
vn 0.634083 0.493576 0.595233
vn 0.384960 0.356883 0.851100
vn 0.278451 0.000000 0.960418
vn 0.571856 0.000000 0.820338
vn 0.092807 0.000000 0.995666
vn 0.217994 -0.356883 0.908322
vn 0.217994 0.356883 0.908322
vn 0.510788 0.493576 0.703879
vn 0.790704 0.341319 0.508194
vn 0.902982 0.000000 0.429609
vn 0.790704 -0.341319 0.508194
vn 0.510788 -0.493576 0.703879
usemtl Material.002
s 1
f 2//1 1//2 9//3
f 9//3 3//4 2//1
f 9//3 4//5 3//4
f 9//3 5//6 4//5
f 9//3 6//7 5//6
f 9//3 7//8 6//7
f 9//3 8//9 7//8
f 9//3 1//2 8//9
f 11//10 10//11 18//12
f 10//11 11//10 12//13
f 10//11 12//13 13//14
f 10//11 13//14 14//15
f 10//11 14//15 15//16
f 10//11 15//16 16//17
f 10//11 16//17 17//18
f 10//11 17//18 18//12
f 27//19 20//20 19//21
f 27//19 21//22 20//20
f 27//19 22//23 21//22
f 27//19 23//24 22//23
f 27//19 24//25 23//24
f 27//19 25//26 24//25
f 27//19 26//27 25//26
f 26//27 27//19 19//21
o Circle
v 0.530947 -0.524017 0.002340
v 0.373536 -0.664071 0.002340
v 0.143128 -0.684657 0.002340
v -0.187354 -0.518544 0.002340
v -0.678081 -0.467488 0.002340
v -0.850202 -0.301098 0.002340
v -0.838721 -0.079668 0.002340
v -0.567242 0.349860 0.002340
v -0.493175 0.609712 0.002340
v -0.270418 0.646684 0.002340
v 0.022532 0.536626 0.002340
v 0.292569 0.546434 0.002340
v 0.502960 0.455364 0.002340
v 0.589393 0.249610 0.002340
v 0.570991 -0.011834 0.005883
v 0.529242 -0.221720 0.005883
v 0.483422 -0.476508 0.002340
v 0.345607 -0.599315 0.002340
v 0.143641 -0.617250 0.002340
v -0.253668 -0.475798 0.002340
v -0.631374 -0.419738 0.002340
v -0.782428 -0.274014 0.002340
v -0.772116 -0.079957 0.002340
v -0.505782 0.326245 0.002340
v -0.441451 0.554572 0.002669
v -0.245724 0.586302 0.002340
v 0.049595 0.465160 0.002340
v 0.267515 0.484478 0.002340
v 0.452184 0.404979 0.002340
v 0.527572 0.224421 0.002340
v 0.530119 -0.015364 0.127881
v 0.502068 -0.232425 0.088304
v 0.423545 -0.416475 0.002340
v 0.308735 -0.520209 0.002340
v 0.138652 -0.534481 0.002340
v -0.231734 -0.413719 0.002340
v -0.563546 -0.362043 0.098843
v -0.692124 -0.240278 0.077652
v -0.681552 -0.077151 0.084893
v -0.420652 0.272024 0.002340
v -0.381107 0.454518 0.034344
v -0.202605 0.490071 0.002340
v 0.082283 0.383272 0.122164
v 0.265086 0.399612 0.046295
v 0.386686 0.340997 0.032368
v 0.481297 0.181804 0.118700
v 0.485183 -0.019627 0.177995
v 0.478142 -0.219602 0.130763
v 0.289336 -0.431807 0.071333
v 0.386819 -0.348896 0.112496
v 0.174011 -0.444275 0.104437
v -0.145381 -0.338762 0.117882
v -0.471191 -0.295960 0.150052
v -0.577319 -0.200217 0.148045
v -0.564838 -0.069876 0.143047
v -0.306776 0.095728 0.094624
v -0.244649 0.346083 0.002340
v -0.030735 0.285415 0.191224
v 0.100361 0.297746 0.210813
v 0.226412 0.277505 0.214186
v 0.365611 0.252283 0.171588
v 0.399387 0.104476 0.225799
v 0.420092 -0.021985 0.231885
v 0.426296 -0.185802 0.195154
v 0.278199 -0.344721 0.183946
v 0.346954 -0.278153 0.199535
v 0.178701 -0.350378 0.205751
v 0.017352 -0.249271 0.264540
v -0.315843 -0.236806 0.147533
v -0.439105 -0.160497 0.201453
v -0.394405 -0.062999 0.163308
v -0.114982 0.070211 0.258737
v -0.061976 0.149539 0.260153
v 0.017352 0.202544 0.262566
v 0.110926 0.221157 0.265623
v 0.204500 0.202544 0.268869
v 0.283828 0.149539 0.271811
v 0.336834 0.070211 0.273989
v 0.355447 -0.023363 0.275054
v 0.336833 -0.116937 0.274832
v 0.237613 -0.249227 0.262572
v 0.280830 -0.194275 0.275516
v 0.157320 -0.246236 0.279819
v 0.049734 -0.187500 0.305840
v -0.134367 -0.172723 0.230858
v -0.223997 -0.123482 0.239259
v -0.187559 -0.047556 0.219743
v -0.045922 0.043435 0.303299
v -0.007608 0.100777 0.303918
v 0.049734 0.139092 0.304975
v 0.117374 0.152546 0.306316
v 0.185013 0.139092 0.307741
v 0.242355 0.100777 0.309035
v 0.280670 0.043435 0.309992
v 0.294124 -0.024204 0.310461
v 0.280670 -0.091844 0.310363
v 0.188866 -0.091563 0.349527
v 0.158246 -0.112023 0.349292
v 0.122127 -0.119208 0.348996
v 0.086008 -0.112023 0.348684
v 0.055388 -0.091563 0.348405
v 0.034928 -0.060943 0.348199
v 0.027743 -0.024824 0.348100
v 0.034928 0.011295 0.348120
v 0.055388 0.041915 0.348259
v 0.086008 0.062375 0.348493
v 0.122127 0.069559 0.348789
v 0.158246 0.062375 0.349101
v 0.188866 0.041915 0.349381
v 0.209326 0.011295 0.349586
v 0.216510 -0.024824 0.349687
v 0.209326 -0.060943 0.349666
v 0.136673 -0.056288 0.367518
v 0.147648 -0.048954 0.367531
v 0.123727 -0.058863 0.367502
v 0.110781 -0.056288 0.367485
v 0.099806 -0.048954 0.367470
v 0.092472 -0.037979 0.367459
v 0.089897 -0.025033 0.367453
v 0.092472 -0.012087 0.367454
v 0.099806 -0.001112 0.367462
v 0.110781 0.006222 0.367475
v 0.123727 0.008797 0.367491
v 0.136673 0.006222 0.367508
v 0.147648 -0.001112 0.367523
v 0.154982 -0.012087 0.367534
v 0.157557 -0.025033 0.367539
v 0.154982 -0.037979 0.367538
v 0.123961 -0.025063 0.371479
vn 0.000000 0.000000 1.000000
vn 0.381512 -0.073855 0.921384
vn 0.314249 -0.202399 0.927488
vn 0.004975 -0.331004 0.943602
vn -0.177068 -0.378155 0.908628
vn -0.396924 -0.156529 0.904386
vn -0.345958 0.105564 0.932279
vn -0.195654 0.124271 0.972747
vn -0.001404 0.000061 0.999969
vn -0.001251 0.001556 0.999969
vn -0.069857 0.058962 0.995788
vn 0.038148 0.299356 0.953368
vn 0.000122 0.001495 0.999969
vn 0.037965 0.380871 0.923826
vn 0.083651 0.375011 0.923215
vn 0.256020 0.268654 0.928556
vn 0.406323 0.080081 0.910184
vn 0.469314 0.203375 0.859279
vn 0.868496 -0.018189 0.495346
vn 0.851588 -0.020356 0.523789
vn 0.842982 -0.162969 0.512619
vn 0.607227 -0.286447 0.741050
vn 0.258553 -0.397351 0.880459
vn 0.176763 -0.407239 0.896023
vn -0.026887 -0.453780 0.890683
vn -0.062227 -0.460524 0.885433
vn -0.231666 -0.562243 0.793817
vn -0.529252 -0.202460 0.823939
vn -0.444777 0.208594 0.870998
vn -0.212409 0.221137 0.951811
vn -0.153081 0.113285 0.981689
vn -0.123630 0.363994 0.923124
vn 0.036988 0.680715 0.731590
vn 0.221412 0.613422 0.758049
vn 0.395123 0.537919 0.744621
vn 0.677206 0.344920 0.649922
vn 0.763298 0.032105 0.645192
vn 0.494705 -0.388470 0.777367
vn 0.497299 -0.544328 0.675527
vn 0.285745 -0.684591 0.670553
vn 0.009552 -0.731315 0.681936
vn -0.116276 -0.667348 0.735588
vn -0.151921 -0.522294 0.839106
vn -0.279397 -0.090732 0.955870
vn -0.352000 0.296365 0.887814
vn -0.310709 0.356975 0.880917
vn -0.357494 0.276620 0.891964
vn -0.309763 0.420911 0.852565
vn 0.017670 0.661519 0.749687
vn 0.239296 0.651509 0.719901
vn 0.447493 0.561266 0.696188
vn 0.586200 0.330607 0.739616
vn 0.636830 0.010010 0.770928
vn 0.608753 -0.326701 0.722922
vn 0.425916 -0.505356 0.750450
vn 0.286081 -0.625935 0.725486
vn 0.029054 -0.673666 0.738456
vn -0.202643 -0.518174 0.830897
vn -0.175024 -0.435652 0.882900
vn -0.179601 -0.097476 0.978881
vn -0.330302 0.254677 0.908841
vn -0.422376 0.254219 0.870022
vn -0.445326 0.394971 0.803491
vn -0.292398 0.501389 0.814264
vn -0.035310 0.547807 0.835841
vn 0.193518 0.513962 0.835658
vn 0.370190 0.405835 0.835597
vn 0.487350 0.237648 0.840205
vn 0.540513 -0.009705 0.841243
vn 0.521317 -0.253914 0.814692
vn 0.358715 -0.386975 0.849422
vn 0.233131 -0.484359 0.843226
vn 0.052950 -0.523759 0.850185
vn -0.211829 -0.435835 0.874722
vn -0.246101 -0.449263 0.858821
vn -0.297433 -0.089236 0.950530
vn -0.380200 0.164983 0.910062
vn -0.422864 0.089389 0.901761
vn -0.352214 0.335673 0.873623
vn -0.200964 0.441450 0.874477
vn -0.019288 0.482803 0.875484
vn 0.166478 0.451521 0.876583
vn 0.327769 0.349986 0.877499
vn 0.437941 0.192175 0.878201
vn 0.477645 0.002564 0.878506
vn 0.448073 -0.212714 0.868313
vn 0.264809 -0.284707 0.921293
vn 0.154698 -0.353954 0.922361
vn 0.019227 -0.395764 0.918119
vn -0.182592 -0.366405 0.912351
vn -0.269173 -0.315775 0.909818
vn -0.366344 -0.098727 0.925199
vn -0.409253 0.090091 0.907926
vn -0.383038 0.122532 0.915555
vn -0.277169 0.268166 0.922636
vn -0.155614 0.351939 0.922971
vn -0.010468 0.383557 0.923429
vn 0.136845 0.357250 0.923917
vn 0.263710 0.275704 0.924345
vn 0.349712 0.150639 0.924650
vn 0.380413 0.001373 0.924802
vn 0.351573 -0.159337 0.922483
vn 0.151006 -0.154607 0.976348
vn 0.079592 -0.201544 0.976226
vn -0.004089 -0.217414 0.976043
vn -0.087191 -0.200079 0.975890
vn -0.157109 -0.152470 0.975707
vn -0.203528 -0.082064 0.975616
vn -0.219733 0.000519 0.975555
vn -0.203345 0.083071 0.975555
vn -0.156865 0.153294 0.975646
vn -0.087008 0.200690 0.975768
vn -0.004089 0.217933 0.975921
vn 0.079379 0.202155 0.976104
vn 0.150731 0.155370 0.976257
vn 0.198706 0.084536 0.976379
vn 0.215705 0.000519 0.976440
vn 0.198920 -0.083560 0.976440
vn -0.000427 0.000031 0.999969
usemtl Material.001
s 1
f 29//28 28//29 44//30 45//28
f 29//28 45//28 46//28 30//28
f 31//28 30//28 46//28 47//31
f 31//28 47//31 48//32 32//28
f 33//28 32//28 48//32 49//33
f 34//28 33//28 49//33 50//34
f 34//28 50//34 51//35 35//36
f 36//37 35//36 51//35 52//38
f 36//37 52//38 53//39 37//40
f 37//40 53//39 54//41 38//28
f 39//28 38//28 54//41 55//42
f 40//28 39//28 55//42 56//43
f 41//44 40//28 56//43 57//45
f 42//46 41//44 57//45 58//47
f 43//48 42//46 58//47 59//49
f 28//29 43//48 59//49 44//30
f 45//28 44//30 60//50 61//51
f 45//28 61//51 62//52 46//28
f 47//31 46//28 62//52 63//53
f 47//31 63//53 64//54 48//32
f 49//33 48//32 64//54 65//55
f 50//34 49//33 65//55 66//56
f 50//34 66//56 67//57 51//35
f 52//38 51//35 67//57 68//58
f 52//38 68//58 69//59 53//39
f 53//39 69//59 70//60 54//41
f 55//42 54//41 70//60 71//61
f 56//43 55//42 71//61 72//62
f 57//45 56//43 72//62 73//63
f 58//47 57//45 73//63 74//64
f 59//49 58//47 74//64 75//65
f 44//30 59//49 75//65 60//50
f 61//51 60//50 77//66 76//67
f 61//51 76//67 78//68 62//52
f 63//53 62//52 78//68 79//69
f 63//53 79//69 80//70 64//54
f 65//55 64//54 80//70 81//71
f 66//56 65//55 81//71 82//72
f 66//56 82//72 83//73 67//57
f 68//58 67//57 83//73 84//74
f 68//58 84//74 85//75 69//59
f 69//59 85//75 86//76 70//60
f 71//61 70//60 86//76 87//77
f 72//62 71//61 87//77 88//78
f 73//63 72//62 88//78 89//79
f 74//64 73//63 89//79 90//80
f 75//65 74//64 90//80 91//81
f 60//50 75//65 91//81 77//66
f 76//67 77//66 93//82 92//83
f 76//67 92//83 94//84 78//68
f 79//69 78//68 94//84 95//85
f 79//69 95//85 96//86 80//70
f 81//71 80//70 96//86 97//87
f 82//72 81//71 97//87 98//88
f 82//72 98//88 99//89 83//73
f 84//74 83//73 99//89 100//90
f 84//74 100//90 101//91 85//75
f 85//75 101//91 102//92 86//76
f 87//77 86//76 102//92 103//93
f 88//78 87//77 103//93 104//94
f 89//79 88//78 104//94 105//95
f 90//80 89//79 105//95 106//96
f 91//81 90//80 106//96 107//97
f 77//66 91//81 107//97 93//82
f 92//83 93//82 109//98 108//99
f 92//83 108//99 110//100 94//84
f 95//85 94//84 110//100 111//101
f 95//85 111//101 112//102 96//86
f 97//87 96//86 112//102 113//103
f 98//88 97//87 113//103 114//104
f 98//88 114//104 115//105 99//89
f 100//90 99//89 115//105 116//106
f 100//90 116//106 117//107 101//91
f 101//91 117//107 118//108 102//92
f 103//93 102//92 118//108 119//109
f 104//94 103//93 119//109 120//110
f 105//95 104//94 120//110 121//111
f 106//96 105//95 121//111 122//112
f 107//97 106//96 122//112 123//113
f 93//82 107//97 123//113 109//98
f 108//99 109//98 124//114 125//115
f 108//99 125//115 126//116 110//100
f 111//101 110//100 126//116 127//117
f 111//101 127//117 128//118 112//102
f 113//103 112//102 128//118 129//119
f 114//104 113//103 129//119 130//120
f 114//104 130//120 131//121 115//105
f 116//106 115//105 131//121 132//122
f 116//106 132//122 133//123 117//107
f 117//107 133//123 134//124 118//108
f 119//109 118//108 134//124 135//125
f 120//110 119//109 135//125 136//126
f 121//111 120//110 136//126 137//127
f 122//112 121//111 137//127 138//128
f 123//113 122//112 138//128 139//129
f 109//98 123//113 139//129 124//114
f 125//115 124//114 141//130 140//131
f 125//115 140//131 142//132 126//116
f 127//117 126//116 142//132 143//133
f 127//117 143//133 144//134 128//118
f 129//119 128//118 144//134 145//135
f 130//120 129//119 145//135 146//136
f 130//120 146//136 147//137 131//121
f 132//122 131//121 147//137 148//138
f 132//122 148//138 149//139 133//123
f 133//123 149//139 150//140 134//124
f 135//125 134//124 150//140 151//141
f 136//126 135//125 151//141 152//142
f 137//127 136//126 152//142 153//143
f 138//128 137//127 153//143 154//144
f 139//129 138//128 154//144 155//145
f 124//114 139//129 155//145 141//130
f 140//131 141//130 156//146
f 140//131 156//146 142//132
f 143//133 142//132 156//146
f 143//133 156//146 144//134
f 145//135 144//134 156//146
f 146//136 145//135 156//146
f 146//136 156//146 147//137
f 148//138 147//137 156//146
f 148//138 156//146 149//139
f 149//139 156//146 150//140
f 151//141 150//140 156//146
f 152//142 151//141 156//146
f 153//143 152//142 156//146
f 154//144 153//143 156//146
f 155//145 154//144 156//146
f 141//130 155//145 156//146
