# Blender3D v249 OBJ File: .wall.blend
# www.blender3d.org
mtllib wall.mtl
o hex
v 0.500000 0.866025 0.300000
v 1.000000 -0.000000 0.300000
v 0.500000 -0.866025 0.300000
v -0.500000 -0.866025 0.300000
v -1.000000 0.000000 0.300000
v -0.500000 0.866026 0.300000
v 0.342217 0.592738 0.600000
v 0.684434 -0.000000 0.600000
v 0.342217 -0.592738 0.600000
v -0.342217 -0.592738 0.600000
v -0.684434 0.000000 0.600000
v -0.342217 0.592738 0.600000
v 0.500000 0.866025 0.000000
v 1.000000 -0.000000 0.000000
v 0.500000 -0.866025 0.000000
v -0.500000 -0.866025 0.000000
v -1.000000 0.000000 0.000000
v -0.500000 0.866026 0.000000
v 0.230414 0.399089 0.600000
v -0.230414 0.399089 0.600000
v -0.460828 0.000000 0.600000
v -0.230414 -0.399089 0.600000
v 0.230414 -0.399089 0.600000
v 0.460828 -0.000000 0.600000
v 0.158852 0.275140 0.471382
v 0.317705 0.000000 0.471382
v 0.158852 -0.275140 0.471382
v -0.158852 -0.275140 0.471382
v -0.317705 0.000000 0.471382
v -0.158852 0.275140 0.471382
vt 0.746881 0.077538
vt 0.655105 0.252419
vt 0.386224 0.244669
vt 0.280087 0.076696
vt 0.238479 0.481143
vt 0.044017 0.480994
vt 0.279597 0.883442
vt 0.385325 0.715869
vt 0.745477 0.883442
vt 0.653746 0.708439
vt 0.977325 0.480196
vt 0.775823 0.479797
vt 0.746797 0.412178
vt 0.086543 0.412178
vt 0.086544 0.214103
vt 0.746796 0.214101
vt 0.013343 0.012941
vt 0.734660 0.012943
vt 0.734659 0.229338
vt 0.013343 0.229337
vt 0.767458 0.568377
vt 0.079209 0.568375
vt 0.079209 0.361900
vt 0.767459 0.361903
vt 0.905748 0.520261
vt 0.111589 0.520262
vt 0.111588 0.282015
vt 0.905747 0.282014
vt 0.932734 0.559556
vt 0.063275 0.559559
vt 0.063274 0.298719
vt 0.932733 0.298718
vt 0.955663 0.424832
vt 0.211015 0.424839
vt 0.211014 0.201440
vt 0.955662 0.201440
vt 0.695438 0.479562
vt 0.609950 0.326123
vt 0.608406 0.634624
vt 0.427270 0.637983
vt 0.332104 0.481380
vt 0.428437 0.322725
vt 0.570968 0.387652
vt 0.462930 0.389256
vt 0.409738 0.481809
vt 0.462194 0.575147
vt 0.569773 0.569275
vt 0.625896 0.479035
vn 0.640211 0.369626 0.673429
vn 0.640211 -0.369626 0.673429
vn -0.000000 -0.739252 0.673429
vn -0.640211 -0.369626 0.673429
vn -0.640211 0.369626 0.673429
vn 0.000000 0.739252 0.673429
vn 0.866025 0.500000 0.000000
vn 0.866025 -0.500000 0.000000
vn -0.000000 -1.000000 0.000000
vn -0.866026 -0.500000 0.000000
vn -0.866025 0.500000 0.000000
vn 0.000000 1.000000 0.000000
vn 0.000000 0.000000 1.000000
vn -0.623588 -0.360029 0.693915
vn -0.623588 0.360029 0.693915
vn 0.000000 0.720057 0.693915
vn 0.623588 0.360028 0.693915
vn 0.623588 -0.360029 0.693915
vn -0.000000 -0.720057 0.693915
usemtl None_stone.png
s off
f 1/1/1 7/2/1 8/3/1 2/4/1
f 2/4/2 8/3/2 9/5/2 3/6/2
f 4/7/3 3/6/3 9/5/3 10/8/3
f 5/9/4 4/7/4 10/8/4 11/10/4
f 6/11/5 5/9/5 11/10/5 12/12/5
f 7/2/6 1/1/6 6/11/6 12/12/6
f 1/13/7 2/14/7 14/15/7 13/16/7
f 2/17/8 3/18/8 15/19/8 14/20/8
f 3/21/9 4/22/9 16/23/9 15/24/9
f 4/25/10 5/26/10 17/27/10 16/28/10
f 5/29/11 6/30/11 18/31/11 17/32/11
f 6/33/12 1/34/12 13/35/12 18/36/12
f 7/2/13 12/12/13 20/37/13 19/38/13
f 12/12/13 11/10/13 21/39/13 20/37/13
f 11/10/13 10/8/13 22/40/13 21/39/13
f 10/8/13 9/5/13 23/41/13 22/40/13
f 9/5/13 8/3/13 24/42/13 23/41/13
f 8/3/13 7/2/13 19/38/13 24/42/13
f 24/42/14 19/38/14 25/43/14 26/44/14
f 23/41/15 24/42/15 26/44/15 27/45/15
f 22/40/16 23/41/16 27/45/16 28/46/16
f 21/39/17 22/40/17 28/46/17 29/47/17
f 20/37/18 21/39/18 29/47/18 30/48/18
f 19/38/19 20/37/19 30/48/19 25/43/19
f 25/43/13 30/48/13 29/47/13 26/44/13
f 26/44/13 29/47/13 28/46/13 27/45/13
