# Blender3D v249 OBJ File: .ewall.blend
# www.blender3d.org
mtllib wwall.mtl
o hex
v -0.500000 -0.866025 0.300000
v -1.000000 0.000000 0.300000
v -0.500000 0.866025 0.300000
v -0.497217 -0.592738 0.600000
v -0.684434 0.000000 0.600000
v -0.497217 0.592738 0.600000
v -0.500000 -0.866025 0.000000
v -1.000000 0.000000 0.000000
v -0.500000 0.866025 0.000000
v -0.500000 -0.603459 0.000000
v -0.500000 -0.603459 0.300000
v -0.500000 0.596472 0.000000
v -0.500000 0.596472 0.300000
vt 0.957900 0.366499
vt 0.674891 0.584961
vt 0.261624 0.640886
vt 0.019915 0.217074
vt 0.433190 0.058856
vt 0.643356 0.427361
vt 0.417869 0.702378
vt 0.112479 0.854579
vt 0.693943 0.638473
vt 0.214620 0.562115
vt 0.093474 0.281195
vt 0.988634 0.518510
vt 0.587627 0.301377
vt 0.407871 0.747373
vt 0.104724 0.872004
vt 0.472092 0.033468
vt 0.977322 0.188902
vt 0.068007 0.692124
vt 0.418607 0.264511
vt 0.213445 0.685221
vt 0.206306 0.340386
vt 0.829157 0.086837
vt 0.829157 0.845435
vt 0.939446 0.625797
vt 0.481598 0.971975
vt 0.116791 0.791158
vt 0.914572 0.282377
vt 0.618970 0.923168
vt 0.071264 0.425133
vt 0.584342 0.214194
vt 0.854687 0.361226
vt 0.069408 0.583021
vt 0.567299 0.334880
vt 0.534028 0.835712
vt 0.645155 0.268313
vt 0.653413 0.667199
vt 0.291575 0.541250
vt 0.677139 0.202893
vt 0.910663 0.284178
vt 0.115890 0.787891
vt 0.134814 0.503019
vn -0.750125 -0.353381 0.558959
vn -0.750125 0.353381 0.558959
vn -0.866025 -0.500000 0.000000
vn -0.866025 0.500000 0.000000
vn 0.000000 0.000000 1.000000
vn 1.000000 -0.000000 0.000000
vn 0.999957 -0.000000 -0.009275
usemtl None_stone.png
s off
f 1/1/1 4/2/1 5/3/1 2/4/1
f 2/5/2 5/6/2 6/7/2 3/8/2
f 1/9/3 2/10/3 8/11/3 7/12/3
f 2/13/4 3/14/4 9/15/4 8/16/4
f 4/17/5 6/18/5 5/19/5
f 11/20/6 1/21/6 7/22/6 10/23/6
f 10/24/6 12/25/6 13/26/6 11/27/6
f 12/28/6 9/29/6 3/30/6 13/31/6
f 3/32/7 6/33/7 13/34/7
f 1/35/7 11/36/7 4/37/7
f 4/38/7 11/39/7 13/40/7 6/41/7
